<svg xmlns="http://www.w3.org/2000/svg" viewBox="0 0 512 512">
  <!-- maskable 变体:内容收缩到安全区(约 80%),背景满幅以便系统裁切 -->
  <defs>
    <linearGradient id="sky" x1="0" y1="0" x2="1" y2="1">
      <stop offset="0" stop-color="#DCEBF3"/>
      <stop offset="1" stop-color="#F8DEE8"/>
    </linearGradient>
    <path id="heart-m" d="M256 421l-30-27C140 318 88 272 88 214c0-47 37-84 84-84 26 0 51 12 68 33l16 19 16-19c17-21 42-33 68-33 47 0 84 37 84 84 0 58-52 104-138 180l-30 27z"/>
  </defs>

  <rect width="512" height="512" fill="#FAF1EB"/>

  <g transform="translate(56.3 56.3) scale(0.78)">
    <g transform="rotate(-6 256 256)">
      <rect x="100" y="82" width="328" height="388" rx="14" fill="#8A5A6B" opacity=".12"/>
      <rect x="92" y="72" width="328" height="388" rx="14" fill="#FFFEFB"/>
      <rect x="118" y="98" width="276" height="252" rx="6" fill="url(#sky)"/>
      <use href="#heart-m" fill="#4E87A6" opacity=".88" transform="translate(52 96) scale(0.44)"/>
      <use href="#heart-m" fill="#D78CA6" opacity=".94" transform="translate(168 128) scale(0.5)"/>
      <g stroke="#B25E7C" stroke-width="7" stroke-linecap="round" opacity=".55">
        <line x1="186" y1="392" x2="222" y2="392"/>
        <line x1="238" y1="392" x2="326" y2="392"/>
      </g>
    </g>
    <g transform="rotate(-42 372 96)">
      <rect x="288" y="72" width="176" height="50" rx="5" fill="#C9A86A" opacity=".78"/>
    </g>
  </g>
</svg>
